<svg xmlns="http://www.w3.org/2000/svg" style="background-color:#000" viewBox="0 0 200 200">
  <path fill="none"
    d="M100  140a69.282 69.282 0 0 0 0-120 69.282 69.282 0 0 0 69.282 120 69.282 69.282 0 0 0-138.564 0A69.282 69.282 0 0 0 100 140a40 40 0 0 0 0-80 69.282 69.282 0 0 0 0 120A69.282 69.282 0 0 0 30.718 60a69.282 69.282 0 0 0 138.564 0A69.282 69.282 0 0 0 100 60a40 40 0 0 0 0 80 40 40 0 0 0 0-40 40 40 0 0 0 34.641 60A40 40 0 0 0 100 100a40 40 0 0 0 69.282 0A40 40 0 0 0 100 100a40 40 0 0 0 34.641-60A40 40 0 0 0 100 100a40 40 0 0 0-34.641-60A40 40 0 0 0 100 100a40 40 0 0 0-69.282 0A40 40 0 0 0 100 100a40 40 0 0 0-34.641 60A40 40 0 0 0 100 140"
    style="fill-opacity:0;stroke:#fff" stroke-dasharray="3000 3000">
    <animate attributeType="XML"
      attributeName="stroke-dashoffset"
      from="0" to="3000"
      dur="6s"
      begin="0s" />

    <animate attributeType="XML"
      attributeName="stroke-dashoffset"
      from="3000" to="0"
      dur="1s"
      begin="6s" />



  </path>
</svg>