<svg viewBox="0 0 200 200"
  xmlns='http://www.w3.org/2000/svg'
  xmlns:xlink="http://www.w3.org/1999/xlink" style="background-color:black">
  <defs>
    <g id="arc">
      <path d='M 30.717968 ,60  A 40,40 0 1 0 169.282032,60 ' />
      <path d='M 65.358984 ,40  A 40,40 0 1 0 134.641016,40 ' />
    </g>
  </defs>

  <style>
    circle,
    path {
      /* stroke-width: 1; */
      fill-opacity: 0;
      /* stroke-linecap: round; */
      stroke: white;
    }
  </style>

  <!-- <path d='M 30.717968 ,140 A 40,40 0 1 0 100       ,20 ' class='mid' /> -->
  <!-- <path d='M 30.717968 ,60  A 40,40 0 1 0 169.282032,60 ' class='mid' /> -->
  <!-- <path d='M 100       ,20  A 40,40 0 1 0 169.282032,140' class='mid' /> -->
  <!-- <path d='M 169.282032,60  A 40,40 0 1 0 100       ,180' class='mid' /> -->
  <!-- <path d='M 169.282032,140 A 40,40 0 1 0 30.717968 ,140' class='mid' /> -->
  <!-- <path d='M 100       ,180 A 40,40 0 1 0 30.717968 ,60 ' class='mid' /> -->

  <!-- <circle cx='200' cy='240' r='40' /> -->
  <!-- <circle cx='200' cy='160' r='40' /> -->
  <!-- <circle cx='165.358984' cy='220' r='40' /> -->
  <!-- <circle cx='165.358984' cy='180' r='40' /> -->
  <!-- <circle cx='234.641016' cy='220' r='40' /> -->
  <!-- <circle cx='234.641016' cy='180' r='40' /> -->
  <!--  -->
  <!-- <circle cx='200' cy='240' r='69.282032' /> -->
  <!-- <circle cx='200' cy='160' r='69.282032' /> -->
  <!-- <circle cx='165.358984' cy='220' r='69.282032' /> -->
  <!-- <circle cx='165.358984' cy='180' r='69.282032' /> -->
  <!-- <circle cx='234.641016' cy='220' r='69.282032' /> -->
  <!-- <circle cx='234.641016' cy='180' r='69.282032' /> -->


  <path d="
    M 100 140
    A 69.282032 69.282032 0 0 0 100 20
    A 69.282032 69.282032 0 0 0 169.282032 140
    A 69.282032 69.282032 0 0 0 30.717968 140
    A 69.282032 69.282032 0 0 0 100 140
    A 40 40 0 0 0 100 60
    A 69.282032 69.282032 0 0 0 100 180
    A 69.282032 69.282032 0 0 0 30.717968 60 
    A 69.282032 69.282032 0 0 0 169.282032 60
    A 69.282032 69.282032 0 0 0 100 60
    A 40 40 0 0 0 100 140">
    <!-- <animate attributeType="XML" -->
    <!-- attributeName="stroke-dashoffset" -->
    <!-- from="0" to="500" -->
    <!-- dur="3s" /> -->
    <animate attributeType="XML"
      attributeName="stroke-dasharray"
      from="0 100" to="5 0" dur="3s"
      fill="freeze" />




  </path>

  <path d="
  M 100 140
  A 40 40 0 0 0 100 100 A 40 40 0 0 0 134.641016 160 
  A 40 40 0 0 0 100 100 A 40 40 0 0 0 169.282032 100 
  A 40 40 0 0 0 100 100 A 40 40 0 0 0 134.641016 40 
  A 40 40 0 0 0 100 100 A 40 40 0 0 0 65.358984 40 
  A 40 40 0 0 0 100 100 A 40 40 0 0 0 30.717968 100
  A 40 40 0 0 0 100 100 A 40 40 0 0 0 65.358984 160
  A 40 40 0 0 0 100 140
  ">
    <animate attributeType="XML"
      attributeName="stroke-dashoffset"
      from="0" to="500"
      dur="3s" />
    <animate attributeType="XML"
      attributeName="stroke-dasharray"
      from="0 100" to="100 0" dur="3s"
      fill="freeze" />


  </path>

  <!-- <path d='M 30 140 A 40 40 0 1 0 100 20' class='mid' /> -->


  <!-- <path d='M 30.717968 ,100 A 40,40 0 1 0 65.358984 ,40 ' class='top' /> -->
  <!-- <path d='M 65.358984 ,40  A 40,40 0 1 0 134.641016,40 ' class='top' /> -->
  <!-- <path d='M 134.641016,40  A 40,40 0 1 0 169.282032,100' class='top' /> -->
  <!-- <path d='M 169.282032,100 A 40,40 0 1 0 134.641016,160' class='top' /> -->
  <!-- <path d='M 134.641016,160 A 40,40 0 1 0 65.358984 ,160' class='top' /> -->
  <!-- <path d='M 65.358984 ,160 A 40,40 0 1 0 30.717968 ,100' class='top' /> -->

  <!-- <path d='M 30.717968 ,60  A 40,40 0 1 0 169.282032,60 ' /> -->
  <!-- <path d='M 30.717968 ,60  A 40,40 0 1 0 169.282032,60 ' transform='rotate(60,100,100)' /> -->
  <!-- <path d='M 30.717968 ,60  A 40,40 0 1 0 169.282032,60 ' transform='rotate(180,100,100)' /> -->
  <!-- <path d='M 30.717968 ,60  A 40,40 0 1 0 169.282032,60 ' transform='rotate(300,100,100)' /> -->

  <!-- <circle cx='100' cy='100' r='40' /> -->
  <!-- <use xlink:href="#arc" /> -->
  <!-- <use xlink:href="#arc" transform='rotate(60,100,100)' /> -->
  <!-- <use xlink:href="#arc" transform='rotate(120,100,100)' /> -->
  <!-- <use xlink:href="#arc" transform='rotate(180,100,100)' /> -->
  <!-- <use xlink:href="#arc" transform='rotate(240,100,100)' /> -->
  <!-- <use xlink:href="#arc" transform='rotate(300,100,100)' /> -->

  <!-- <script> -->
  <!-- paths = documnet.query() -->
  <!--  -->
  <!-- </script> -->

</svg>