<svg xmlns="http://www.w3.org/2000/svg" viewBox="0 0 200 200"><style>path{stroke-width:1;fill-opacity:0;stroke-linecap:round}.mid{stroke:#00f}.top{stroke:red}</style><circle cx="100" cy="100" r="40" style="stroke:green;stroke-width:1;fill-opacity:0"/><path d="M30.718 60a40 40 0 1 0 138.564 0" class="mid"/><path d="M100 20a69.282 69.282 0 1 0 69.282 120" class="mid"/><path d="M169.282 60A69.282 69.282 0 1 0 100 180" class="mid"/><path d="M169.282 140a69.282 69.282 0 1 0-138.564 0" class="mid"/><path d="M100 180A69.282 69.282 0 1 0 30.718 60" class="mid"/><path d="M30.718 140A69.282 69.282 0 1 0 100 20" class="mid"/><path d="M65.359 40a40 40 0 1 0 69.282 0" class="top"/><path d="M134.641 40a40 40 0 1 0 34.641 60" class="top"/><path d="M169.282 100a40 40 0 1 0-34.641 60" class="top"/><path d="M134.641 160a40 40 0 1 0-69.282 0" class="top"/><path d="M65.359 160a40 40 0 1 0-34.641-60" class="top"/><path d="M30.718 100a40 40 0 1 0 34.641-60" class="top"/></svg>