<svg xmlns="http://www.w3.org/2000/svg" style="background-color:#000" viewBox="0 0 200 200"><style>path{stroke:#fff}</style><path d="M100 140a69.282 69.282 0 0 0 0-120 69.282 69.282 0 0 0 69.282 120 69.282 69.282 0 0 0-138.564 0A69.282 69.282 0 0 0 100 140a40 40 0 0 0 0-80 69.282 69.282 0 0 0 0 120A69.282 69.282 0 0 0 30.718 60a69.282 69.282 0 0 0 138.564 0A69.282 69.282 0 0 0 100 60a40 40 0 0 0 0 80"/><path d="M100 140a40 40 0 0 0 0-40 40 40 0 0 0 34.641 60A40 40 0 0 0 100 100a40 40 0 0 0 69.282 0A40 40 0 0 0 100 100a40 40 0 0 0 34.641-60A40 40 0 0 0 100 100a40 40 0 0 0-34.641-60A40 40 0 0 0 100 100a40 40 0 0 0-69.282 0A40 40 0 0 0 100 100a40 40 0 0 0-34.641 60A40 40 0 0 0 100 140"/></svg>