<svg xmlns="http://www.w3.org/2000/svg" style="background-color:#000" viewBox="0 0 200 200"><defs><g id="arc"><path d="M30.718 60a40 40 0 1 0 138.564 0"/><path d="M65.359 40a40 40 0 1 0 69.282 0"/></g></defs><style>path{fill-opacity:0;stroke:#fff}</style><path d="M100 140a69.282 69.282 0 0 0 0-120 69.282 69.282 0 0 0 69.282 120 69.282 69.282 0 0 0-138.564 0A69.282 69.282 0 0 0 100 140a40 40 0 0 0 0-80 69.282 69.282 0 0 0 0 120A69.282 69.282 0 0 0 30.718 60a69.282 69.282 0 0 0 138.564 0A69.282 69.282 0 0 0 100 60a40 40 0 0 0 0 80"><animate fill="freeze" attributeName="stroke-dasharray" attributeType="XML" dur="3s" from="0 100" to="5 0"/></path><path d="M100 140a40 40 0 0 0 0-40 40 40 0 0 0 34.641 60A40 40 0 0 0 100 100a40 40 0 0 0 69.282 0A40 40 0 0 0 100 100a40 40 0 0 0 34.641-60A40 40 0 0 0 100 100a40 40 0 0 0-34.641-60A40 40 0 0 0 100 100a40 40 0 0 0-69.282 0A40 40 0 0 0 100 100a40 40 0 0 0-34.641 60A40 40 0 0 0 100 140"><animate attributeName="stroke-dashoffset" attributeType="XML" dur="3s" from="0" to="500"/><animate fill="freeze" attributeName="stroke-dasharray" attributeType="XML" dur="3s" from="0 100" to="100 0"/></path></svg>